<svg width="30" height="30" viewBox="0 0 30 30" fill="none" xmlns="http://www.w3.org/2000/svg">
<path d="M13.317 5.28167e-08C15.1508 -0.000163159 16.9649 0.377939 18.6459 1.11067C20.3269 1.8434 21.8387 2.91501 23.0868 4.25851C24.3349 5.60202 25.2924 7.18853 25.8995 8.91887C26.5067 10.6492 26.7503 12.4862 26.6153 14.315C26.0916 14.05 25.5435 13.8362 24.9787 13.6767C25.0477 11.3409 24.4138 9.03812 23.1589 7.0668C21.904 5.09548 20.0861 3.54644 17.9406 2.62035C15.7951 1.69426 13.4209 1.43382 11.1257 1.87276C8.83043 2.3117 6.7199 3.42979 5.06751 5.08219C3.41511 6.73458 2.29702 8.84511 1.85808 11.1404C1.41914 13.4356 1.67958 15.8098 2.60567 17.9553C3.53176 20.1008 5.0808 21.9187 7.05212 23.1736C9.02344 24.4285 11.3262 25.0624 13.662 24.9933C13.822 25.565 14.0353 26.1117 14.2987 26.6317C12.5124 26.7613 10.7184 26.5298 9.02359 25.9509C7.3288 25.372 5.768 24.4577 4.43434 23.2624C3.10068 22.067 2.02149 20.6153 1.26118 18.9938C0.500867 17.3723 0.0750198 15.6142 0.00904945 13.8245C-0.0569209 12.0348 0.238338 10.2501 0.877206 8.57699C1.51607 6.90389 2.48545 5.37665 3.7275 4.08639C4.96954 2.79614 6.45879 1.76934 8.10636 1.06725C9.75393 0.365167 11.5261 0.00219579 13.317 5.28167e-08Z" fill="black" fill-opacity="0.18"/>
<path d="M8.57586 17.3783C9.2635 18.0718 10.095 18.6059 11.0117 18.9428C11.9283 19.2798 12.9078 19.4114 13.8809 19.3283C13.6787 19.876 13.5297 20.442 13.4359 21.0183C12.3145 21.0355 11.2011 20.826 10.1627 20.4024C9.1242 19.9789 8.18198 19.3499 7.39253 18.5533C7.23671 18.3964 7.14961 18.184 7.1504 17.9628C7.15118 17.7417 7.23977 17.5299 7.39669 17.3741C7.55361 17.2183 7.766 17.1312 7.98714 17.132C8.20828 17.1328 8.42004 17.2214 8.57586 17.3783Z" fill="black" fill-opacity="0.18"/>
<path d="M17.484 9.16669C17.9261 9.16669 18.35 9.34228 18.6626 9.65484C18.9751 9.9674 19.1507 10.3913 19.1507 10.8334C19.1507 11.2754 18.9751 11.6993 18.6626 12.0119C18.35 12.3244 17.9261 12.5 17.484 12.5C17.042 12.5 16.6181 12.3244 16.3055 12.0119C15.993 11.6993 15.8174 11.2754 15.8174 10.8334C15.8174 10.3913 15.993 9.9674 16.3055 9.65484C16.6181 9.34228 17.042 9.16669 17.484 9.16669Z" fill="black" fill-opacity="0.18"/>
<path d="M9.15104 9.16669C9.59307 9.16669 10.017 9.34228 10.3296 9.65484C10.6421 9.9674 10.8177 10.3913 10.8177 10.8334C10.8177 11.2754 10.6421 11.6993 10.3296 12.0119C10.017 12.3244 9.59307 12.5 9.15104 12.5C8.70901 12.5 8.28509 12.3244 7.97253 12.0119C7.65997 11.6993 7.48438 11.2754 7.48438 10.8334C7.48438 10.3913 7.65997 9.9674 7.97253 9.65484C8.28509 9.34228 8.70901 9.16669 9.15104 9.16669Z" fill="black" fill-opacity="0.18"/>
<path d="M29.9844 22.5C29.9844 24.4891 29.1942 26.3968 27.7877 27.8033C26.3812 29.2098 24.4735 30 22.4844 30C20.4953 30 18.5876 29.2098 17.1811 27.8033C15.7746 26.3968 14.9844 24.4891 14.9844 22.5C14.9844 20.5109 15.7746 18.6032 17.1811 17.1967C18.5876 15.7902 20.4953 15 22.4844 15C24.4735 15 26.3812 15.7902 27.7877 17.1967C29.1942 18.6032 29.9844 20.5109 29.9844 22.5ZM23.3177 19.1667C23.3177 18.9457 23.2299 18.7337 23.0736 18.5774C22.9174 18.4211 22.7054 18.3333 22.4844 18.3333C22.2634 18.3333 22.0514 18.4211 21.8951 18.5774C21.7388 18.7337 21.651 18.9457 21.651 19.1667V21.6667H19.151C18.93 21.6667 18.7181 21.7545 18.5618 21.9107C18.4055 22.067 18.3177 22.279 18.3177 22.5C18.3177 22.721 18.4055 22.933 18.5618 23.0893C18.7181 23.2455 18.93 23.3333 19.151 23.3333H21.651V25.8333C21.651 26.0543 21.7388 26.2663 21.8951 26.4226C22.0514 26.5789 22.2634 26.6667 22.4844 26.6667C22.7054 26.6667 22.9174 26.5789 23.0736 26.4226C23.2299 26.2663 23.3177 26.0543 23.3177 25.8333V23.3333H25.8177C26.0387 23.3333 26.2507 23.2455 26.407 23.0893C26.5632 22.933 26.651 22.721 26.651 22.5C26.651 22.279 26.5632 22.067 26.407 21.9107C26.2507 21.7545 26.0387 21.6667 25.8177 21.6667H23.3177V19.1667Z" fill="black" fill-opacity="0.18"/>
</svg>
