<svg width="29" height="25" viewBox="0 0 29 25" fill="none" xmlns="http://www.w3.org/2000/svg">
<path d="M23.95 0.25C26.3755 0.25 28.36 2.32725 28.493 4.9435L28.5 5.227V19.773C28.5 22.4277 26.6012 24.596 24.2073 24.743L23.95 24.75H5.05C2.6245 24.75 0.64 22.6728 0.507 20.0565L0.5 19.773V5.227C0.5 2.57225 2.39875 0.404 4.791 0.257L5.05 0.25H23.95ZM23.6875 2H5.3125C3.692 2 2.3655 3.38775 2.257 5.14475L2.25 5.37575V19.6243C2.25 21.411 3.51 22.874 5.1025 22.993L5.3125 23H23.6875C25.308 23 26.6345 21.6123 26.743 19.857L26.75 19.6225V5.3775C26.75 3.59075 25.49 2.12775 23.8975 2.00875L23.6875 2ZM8.98925 7.2535C10.0742 7.2535 10.9983 7.42325 11.756 7.77675C12.2233 7.99375 12.4105 8.51875 12.176 8.951C12.0511 9.16288 11.8514 9.32029 11.6163 9.39221C11.3811 9.46412 11.1275 9.44532 10.9055 9.3395C10.4365 9.12075 9.7995 9.0035 8.98925 9.0035C7.19375 9.0035 5.89175 10.4595 5.89175 12.5035C5.89175 14.4618 7.3145 16 8.98925 16C10.034 16 10.7427 15.3857 10.8442 14.8222L10.8583 14.6822V13.3768L10.195 13.375C9.6735 13.375 9.25 12.983 9.25 12.5C9.25 12.0712 9.58425 11.7125 10.0252 11.639L10.1967 11.625L11.8032 11.6268C12.0174 11.6204 12.2272 11.6884 12.3969 11.8192C12.5666 11.95 12.6858 12.1355 12.7343 12.3443L12.75 12.5018V14.6822C12.75 16.217 11.1995 17.75 8.98925 17.75C6.198 17.75 4 15.3735 4 12.5018C4 9.56 6.05975 7.2535 8.98925 7.2535ZM16.25 7.25C16.4548 7.24993 16.6531 7.3217 16.8105 7.45281C16.9678 7.58391 17.0741 7.76605 17.111 7.9675L17.125 8.125V16.875C17.1254 17.0937 17.0439 17.3045 16.8966 17.4661C16.7493 17.6277 16.5468 17.7283 16.3291 17.748C16.1113 17.7678 15.894 17.7053 15.72 17.5729C15.5461 17.4404 15.428 17.2477 15.389 17.0325L15.375 16.875V8.125C15.375 7.89294 15.4672 7.67038 15.6313 7.50628C15.7954 7.34219 16.0179 7.25 16.25 7.25ZM24.125 7.25C24.3437 7.2496 24.5545 7.33108 24.7161 7.47839C24.8777 7.6257 24.9783 7.82818 24.998 8.04594C25.0178 8.2637 24.9553 8.48097 24.8229 8.65495C24.6904 8.82894 24.4977 8.94704 24.2825 8.986L24.125 9H21.5V12.5H24.125C24.3437 12.4996 24.5545 12.5811 24.7161 12.7284C24.8777 12.8757 24.9783 13.0782 24.998 13.2959C25.0178 13.5137 24.9553 13.731 24.8229 13.905C24.6904 14.0789 24.4977 14.197 24.2825 14.236L24.125 14.25H21.5V16.875C21.5004 17.0937 21.4189 17.3045 21.2716 17.4661C21.1243 17.6277 20.9218 17.7283 20.7041 17.748C20.4863 17.7678 20.269 17.7053 20.095 17.5729C19.9211 17.4404 19.803 17.2477 19.764 17.0325L19.75 16.875V8.125C19.75 7.89294 19.8422 7.67038 20.0063 7.50628C20.1704 7.34219 20.3929 7.25 20.625 7.25H24.125Z" fill="#6A50D3"/>
</svg>
