<svg width="22" height="21" viewBox="0 0 22 21" fill="none" xmlns="http://www.w3.org/2000/svg">
<path d="M10.998 4.13686L10.6365 3.75843C9.66599 2.74258 8.00623 1.38904 6.132 1.38904C4.44569 1.38904 3.044 1.97471 2.0651 2.95179C1.08627 3.92882 0.5 5.3273 0.5 7.00904C0.5 8.84841 1.22106 10.3754 2.33417 11.7632C3.45687 13.163 4.95353 14.392 6.4769 15.6403L6.4771 15.6405L6.51669 15.6729C7.92676 16.8295 9.42739 18.0604 10.5865 19.4329M10.998 4.13686L10.205 19.756M10.998 4.13686L11.3595 3.75843C12.3296 2.74299 13.9935 1.38904 15.869 1.38904C17.5548 1.38904 18.9562 1.97468 19.935 2.95177C20.9137 3.9288 21.5 5.3273 21.5 7.00904C21.5 8.84885 20.7785 10.3761 19.665 11.7639C18.5419 13.1637 17.0451 14.3924 15.5222 15.6402C15.5222 15.6402 15.5221 15.6403 15.5221 15.6403L15.5196 15.6424C14.0971 16.8074 12.5816 18.0486 11.4105 19.4329M10.998 4.13686L11.792 19.756M10.5865 19.4329C10.5867 19.4331 10.5868 19.4332 10.587 19.4334L10.205 19.756M10.5865 19.4329C10.5864 19.4327 10.5863 19.4326 10.5862 19.4325L10.205 19.756M10.5865 19.4329C10.683 19.5463 10.8237 19.611 10.97 19.611H11.028C11.1743 19.611 11.3144 19.546 11.4105 19.4329M10.205 19.756C10.396 19.981 10.676 20.111 10.97 20.111H11.028C11.323 20.111 11.602 19.98 11.792 19.756M11.4105 19.4329C11.4104 19.4329 11.4103 19.433 11.4103 19.4331L11.792 19.756M11.4105 19.4329C11.4106 19.4328 11.4106 19.4327 11.4107 19.4326L11.792 19.756M10.998 3.41304L10.6365 3.06765C10.6392 3.06475 10.642 3.06184 10.6448 3.05892C10.7718 3.18084 10.8898 3.29975 10.998 3.41304ZM10.998 3.41304L11.3595 3.06765C11.3568 3.06477 11.354 3.06188 11.3513 3.05899C11.2242 3.18088 11.1062 3.29977 10.998 3.41304Z" stroke="black"/>
</svg>
